<?xml version="1.0" standalone="no"?>
<!DOCTYPE svg PUBLIC "-//W3C//DTD SVG 1.1//EN" "http://www.w3.org/Graphics/SVG/1.1/DTD/svg11.dtd" >
<svg xmlns="http://www.w3.org/2000/svg" xmlns:xlink="http://www.w3.org/1999/xlink" version="1.1">
<metadata></metadata>
<defs>
<font id="equal_regular" horiz-adv-x="806" >
<font-face units-per-em="2048" ascent="1638" descent="-410" />
<missing-glyph horiz-adv-x="385" />
<glyph horiz-adv-x="0" />
<glyph horiz-adv-x="682" />
<glyph unicode=" "  horiz-adv-x="385" />
<glyph unicode="&#x09;" horiz-adv-x="385" />
<glyph unicode="&#xa0;" horiz-adv-x="385" />
<glyph unicode="!" horiz-adv-x="235" d="M4 6v191h191v-191h-191zM4 387v1149h191v-1149h-191z" />
<glyph unicode="&#x22;" horiz-adv-x="507" d="M0 1343v377h190v-377h-190zM276 1343v377h191v-377h-191z" />
<glyph unicode="#" horiz-adv-x="1058" d="M-18 4l305 971h-287v190h344l117 365h190l-116 -365h114l117 365h190l-215 -684h277v-191h-336l-205 -651h-190l202 651h-110l-207 -651h-190zM436 846h115l39 129h-113z" />
<glyph unicode="$" d="M-4 1104q0 124 72.5 237t183.5 164v99h190v-70h324v-191h-324v-485q89 -18 164 -83t117.5 -156t42.5 -185t-42.5 -185t-117.5 -156t-164 -83v-76h-190v70h-252v191h252v505q-111 51 -183.5 165.5t-72.5 238.5zM190 1104q0 -42 16.5 -87.5t45.5 -78.5v332 q-62 -78 -62 -166zM442 209q57 27 95 93t38 132t-38 131t-95 92v-448z" />
<glyph unicode="%" horiz-adv-x="837" d="M10 1337q0 79 57 136t136 57q78 0 134 -57t56 -136q0 -81 -56 -137.5t-134 -56.5q-80 0 -136.5 56.5t-56.5 137.5zM12 4h191l594 1526h-191zM104 1337q0 -40 29 -68t70 -28q40 0 68 28t28 68q0 39 -28.5 67t-67.5 28q-41 0 -70 -28t-29 -67zM393 195q0 78 57 134t138 56 q78 0 134 -56t56 -134q0 -81 -56 -138t-134 -57q-82 0 -138.5 56.5t-56.5 138.5zM489 195q0 -41 29 -70t70 -29q38 0 66 29t28 70q0 38 -28 66t-66 28q-41 0 -70 -28t-29 -66z" />
<glyph unicode="&#x26;" horiz-adv-x="821" d="M-4 1104q0 170 109.5 291t275.5 135q164 -14 272.5 -135t108.5 -291q0 -103 -37.5 -190t-110.5 -146l-122 -43l122 -307l29 43l137 -113l-75 -153l75 -189h-221l-14 35q-65 -35 -152 -35h-26q-170 3 -268.5 125t-98.5 305q0 103 36.5 189.5t108.5 142.5 q-73 59 -111 146.5t-38 189.5zM201 436q0 -98 43 -167t125 -72h22q41 0 80 24l-178 424q-44 -28 -68 -85.5t-24 -123.5zM201 1104q0 -96 43 -166t125 -74h24q81 4 123.5 74t42.5 166q0 98 -43 167t-125 72h-18q-85 -3 -128.5 -72t-43.5 -167z" />
<glyph unicode="'" horiz-adv-x="231" d="M0 1343v377h190v-377h-190z" />
<glyph unicode="(" horiz-adv-x="425" d="M4 0v1528h381v-191h-190v-1147h190v-190h-381z" />
<glyph unicode=")" horiz-adv-x="425" d="M4 6v191h191v1146h-191v191h381v-1528h-381z" />
<glyph unicode="*" horiz-adv-x="800" d="M-4 1448v190h151l-106 107l135 135l107 -106v149h190v-149l109 106l135 -135l-109 -107h152v-190h-152l109 -109l-135 -135l-109 109v-152h-190v152l-107 -109l-135 135l106 109h-151z" />
<glyph unicode="+" horiz-adv-x="796" d="M-6 639v190h287v287h190v-287h285v-190h-285v-285h-190v285h-287z" />
<glyph unicode="," horiz-adv-x="303" d="M12 133l135 135q114 -114 114 -273t-114 -269l-135 135q58 56 58 136t-58 136z" />
<glyph unicode="-" horiz-adv-x="800" d="M-4 639h764v190h-764v-190z" />
<glyph unicode="." horiz-adv-x="235" d="M4 4v193h191v-193h-191z" />
<glyph unicode="/" horiz-adv-x="698" d="M-10 0h192l475 1528h-190z" />
<glyph unicode="0" horiz-adv-x="802" d="M0 381v766q0 152 105 261.5t257 115.5v4h17h2h4h18v-4q150 -6 254.5 -115.5t104.5 -261.5v-766q0 -152 -104.5 -262.5t-254.5 -118.5v-4h-22h-19v4q-152 7 -257 118t-105 263zM190 381q0 -78 56.5 -134.5t134.5 -56.5t134 56.5t56 134.5v762q0 78 -56 134t-134 56 t-134.5 -56t-56.5 -134v-762z" />
<glyph unicode="1" horiz-adv-x="235" d="M4 6h191v1530h-191v-1530z" />
<glyph unicode="2" d="M0 6l575 1147q0 78 -58 134t-136 56h-381v193h381q160 0 272.5 -112.5t112.5 -270.5l-477 -952h473v-195h-567h-195z" />
<glyph unicode="3" horiz-adv-x="802" d="M0 6v195h326h12q86 1 147.5 73t61.5 162q0 93 -63 166.5t-152 73.5h-6h-326v190h342q86 4 145.5 77t59.5 163t-62 162t-149 75h-10h-326v193h338h4v-2q175 -3 297.5 -128t122.5 -300q0 -99 -42.5 -186t-117.5 -148q75 -59 117.5 -147.5t42.5 -188.5q0 -174 -122 -297.5 t-296 -128.5v-4h-344z" />
<glyph unicode="4" horiz-adv-x="821" d="M12 584l385 639h2l191 317h190l-192 -319v-447h192v-190h-192v-568h-191v568h-188h-197zM324 774h73v127z" />
<glyph unicode="5" horiz-adv-x="808" d="M4 10v191h381q75 0 134 78.5t59 160.5q0 83 -59 161.5t-134 78.5h-381v860h614v-190h-423v-480h190q102 0 191.5 -63.5t140.5 -162.5t51 -204q0 -106 -51 -205t-140.5 -162t-191.5 -63h-381z" />
<glyph unicode="6" horiz-adv-x="802" d="M-4 436q0 121 70 238l503 862h193l-371 -670q99 -3 186 -66.5t136 -161.5t49 -202t-51 -202.5t-140.5 -162t-191.5 -65.5q-103 2 -192.5 65.5t-140 162t-50.5 202.5zM188 436q0 -82 58 -158.5t133 -76.5q76 0 134 76.5t58 158.5q0 86 -58 163t-134 77q-75 0 -133 -77.5 t-58 -162.5z" />
<glyph unicode="7" d="M4 6l498 1337h-498v193h567h195l-565 -1526z" />
<glyph unicode="8" d="M4 436q0 102 36.5 189.5t106.5 146.5q-143 122 -143 334q0 170 108 292.5t273 135.5q165 -13 273 -135.5t108 -292.5q0 -213 -145 -334q145 -121 145 -336q0 -181 -99 -303t-268 -123l-14 -4l-16 4q-113 1 -197 59t-126 153.5t-42 213.5zM203 436q0 -61 17.5 -112.5 t57 -86.5t95.5 -36h24q82 1 125 70t43 165q0 98 -47.5 169t-132.5 71q-86 0 -134 -71t-48 -169zM203 1106q0 -96 44 -166.5t126 -73.5h24q82 3 125 73t43 167q0 95 -44.5 164.5t-127.5 72.5h-18q-83 -3 -127.5 -72.5t-44.5 -164.5zM369 1536h12h6h12l-14 -2z" />
<glyph unicode="9" horiz-adv-x="800" d="M-6 1104q0 105 50.5 204t139.5 162.5t191 63.5q97 0 183.5 -56.5t138.5 -147t59 -189.5h4v-13v-24v-23v-1075h-195v731q-89 -63 -190 -63q-102 1 -191 65t-139.5 162.5t-50.5 202.5zM184 1104q0 -82 58 -160t133 -78q73 0 129 70.5t61 150.5v35q-5 80 -61 150.5 t-129 70.5q-75 0 -133 -77.5t-58 -161.5z" />
<glyph unicode=":" horiz-adv-x="235" d="M4 154v190h191v-190h-191zM4 1112v191h191v-191h-191z" />
<glyph unicode=";" horiz-adv-x="260" d="M-31 225q59 57 59 136.5t-59 136.5l135 135q114 -113 114 -272t-114 -271zM0 1241v191h190v-191h-190z" />
<glyph unicode="&#x3c;" horiz-adv-x="802" d="M0 670v190h4v4l758 289v-197l-506 -190l506 -195v-192l-758 289v2h-4z" />
<glyph unicode="=" d="M4 514v191h762v-191h-762zM4 895v190h762v-190h-762z" />
<glyph unicode="&#x3e;" horiz-adv-x="802" d="M0 379v192l508 195l-508 190v197l760 -289v-4h2v-190h-2v-2z" />
<glyph unicode="?" d="M-4 1153q0 158 113.5 270.5t271.5 112.5q156 0 268 -108t117 -261v-6v-8v-12v-25h-4q-10 -122 -89 -213.5t-196 -122.5v-393h-190v576h110q74 5 126 59.5t52 130.5q0 80 -56.5 136.5t-137.5 56.5q-78 0 -134.5 -57t-56.5 -136h-194zM287 6v191h190v-191h-190z" />
<glyph unicode="@" horiz-adv-x="1484" d="M0 201v497v25v27h4q19 142 127 236.5t254 94.5h676q158 0 270.5 -112.5t112.5 -270.5v-307q0 -155 -105 -265.5t-258 -119.5h-20h-170v62q-94 -64 -209 -64q-158 0 -270.5 112.5t-112.5 270.5q0 160 112.5 272.5t270.5 112.5q115 0 209 -61v61h190v-571q73 6 122.5 61 t49.5 129v307q0 73 -49 128.5t-123 64.5v-2h-721q-67 -7 -114.5 -57t-55.5 -119v-516q0 -78 57 -134.5t138 -56.5v-190q-160 0 -272.5 112.5t-112.5 272.5zM492 387q0 -78 56 -134t134 -56q81 0 138 56t57 134q0 82 -56.5 138.5t-138.5 56.5q-78 0 -134 -57t-56 -138z" />
<glyph unicode="A" horiz-adv-x="821" d="M0 12l283 1528h213l284 -1528h-196l-76 422h-234l-79 -422h-195zM307 625h164l-84 432z" />
<glyph unicode="B" horiz-adv-x="675" d="M6 4v1526h191h6h8q176 -5 300 -128.5t124 -297.5q0 -99 -43 -186.5t-117 -149.5q74 -62 117 -148.5t43 -185.5q0 -174 -124.5 -299.5t-299.5 -130.5h-14h-191zM197 195h14q85 4 146 77t61 162q0 92 -64 166t-151 74h-6v-479zM197 860h14q86 4 146.5 79t60.5 165 t-61.5 162t-147.5 73h-12v-479z" />
<glyph unicode="C" horiz-adv-x="612" d="M-6 375h6v766q0 157 112 269t267 112h192v-195h-192q-78 0 -134.5 -56t-56.5 -134v-762q0 -79 56.5 -136t134.5 -57h192v-188h-192q-159 0 -272 112t-113 269z" />
<glyph unicode="D" d="M0 6v1528h190h191q157 -3 269 -114t112 -267h4v-766q0 -103 -51.5 -191t-140 -139.5t-193.5 -52.5h-191v2h-190zM190 197h191q81 0 137.5 56t56.5 134h-4v762q0 78 -56 136t-134 58h-191v-1146z" />
<glyph unicode="E" horiz-adv-x="612" d="M-2 10v1526h573v-193h-381v-473h191v-194h-191v-475h381v-191h-381h-192z" />
<glyph unicode="F" horiz-adv-x="612" d="M0 10v1526h571v-190h-381v-476h191v-194h-191v-666h-190z" />
<glyph unicode="G" horiz-adv-x="808" d="M-2 1153q0 158 113.5 270.5t271.5 112.5h4h19q90 -3 172 -51q87 -52 138.5 -140t51.5 -192h-190q0 75 -53.5 132t-129.5 61h-8h-4q-78 0 -134 -56.5t-56 -134.5v-764q0 -78 56.5 -134t137.5 -56h191v475h-195v190h385v-860h-190h-195q-157 3 -269 116t-112 269v762h-4z " />
<glyph unicode="H" horiz-adv-x="802" d="M0 10v1526h190v-666h381v666h191v-1526h-191v666h-381v-666h-190z" />
<glyph unicode="I" horiz-adv-x="808" d="M6 6v195h287v1145h-287v190h287h190h285v-190h-285v-1145h285v-195h-762z" />
<glyph unicode="J" horiz-adv-x="808" d="M6 1346v190h287h190h285v-190h-285v-955q0 -159 -112.5 -270t-272.5 -111v191q81 0 138 56t57 134v955h-287z" />
<glyph unicode="K" horiz-adv-x="618" d="M-2 4v1526h192v-381l191 381h197l-385 -764l385 -762h-197l-191 381v-381h-192z" />
<glyph unicode="L" horiz-adv-x="612" d="M0 10v1526h190v-1335h381v-191h-571z" />
<glyph unicode="M" horiz-adv-x="808" d="M-2 10v1526h199l186 -504l190 504h195l-4 -12v-1514h-191v1010l-94 -248h-194l-95 252v-1014h-192z" />
<glyph unicode="N" horiz-adv-x="720" d="M6 10v1526h293l190 -1020v1020h191v-1526h-96v-4h-197l-190 1020v-1016h-191z" />
<glyph unicode="O" d="M0 393v766q3 152 108 261.5t254 115.5v4h19h4h18v-4q149 -6 254.5 -115.5t108.5 -261.5v-766q0 -152 -105.5 -263t-257.5 -118v-2h-18h-4h-19v2q-152 7 -257 118t-105 263zM190 393q0 -78 56.5 -134t134.5 -56q81 0 137.5 56t56.5 134h-4v762q0 79 -54.5 135t-135.5 56 q-78 0 -134.5 -56.5t-56.5 -134.5v-762z" />
<glyph unicode="P" horiz-adv-x="778" d="M0 10v1526h164h190q158 0 270.5 -112.5t112.5 -270.5q0 -160 -112.5 -272.5t-270.5 -112.5h-164v-758h-190zM190 958h164q79 0 136 58t57 137t-56.5 136t-136.5 57h-164v-388z" />
<glyph unicode="Q" horiz-adv-x="802" d="M0 393v766q0 152 105 261.5t257 115.5v4h17h2h4h18v-4q150 -6 254.5 -115.5t104.5 -261.5v-766q0 -119 -62 -211l62 -172h-193l-16 43q-61 -34 -150 -41v-2h-22h-19v2q-152 7 -257 118t-105 263zM190 393q0 -78 56.5 -134t134.5 -56q57 0 104 30l-198 541h192l92 -246 v627q0 78 -56 134.5t-134 56.5t-134.5 -56.5t-56.5 -134.5v-762z" />
<glyph unicode="R" horiz-adv-x="790" d="M-2 10v1530h176h191q160 0 272.5 -112.5t112.5 -272.5q0 -132 -81 -235t-206 -136l287 -774h-195l-285 762h-77v-762h-195zM193 963h172q81 0 137.5 56t56.5 136q0 79 -56.5 137t-137.5 58h-172v-387z" />
<glyph unicode="S" horiz-adv-x="808" d="M-2 1110q0 105 51.5 204t141.5 162.5t192 63.5h385v-190h-385q-75 0 -132.5 -78t-57.5 -162q0 -52 25 -107.5t70 -94t95 -38.5q103 0 193 -63.5t141 -162.5t51 -204q0 -106 -51 -205t-141 -162t-193 -63h-381v191h381q78 0 136.5 78t58.5 161q0 84 -58.5 162t-136.5 78 q-102 0 -192 63t-141.5 162t-51.5 205z" />
<glyph unicode="T" horiz-adv-x="802" d="M0 1346v194h287h190h285v-194h-285v-1336h-190v1336h-287z" />
<glyph unicode="U" horiz-adv-x="808" d="M6 381v1147h191v-1147q0 -78 56 -134.5t134 -56.5t134.5 56.5t56.5 134.5v1147h190v-1147q0 -152 -104.5 -262.5t-253.5 -118.5v-4h-23h-18v4q-152 7 -257.5 118t-105.5 263z" />
<glyph unicode="V" horiz-adv-x="808" d="M6 1540h195l192 -1032l182 1032h193l-264 -1528h-19v-2h-192z" />
<glyph unicode="W" horiz-adv-x="808" d="M4 -6l2 16v1514h189v-1010l94 246h196l93 -252v1016h190v-1530h-193l-188 504l-192 -504h-191z" />
<glyph unicode="X" horiz-adv-x="716" d="M10 4l236 764l-236 766h191l143 -461l141 461h191l-236 -766l236 -764h-191l-141 461l-143 -461h-191z" />
<glyph unicode="Y" horiz-adv-x="839" d="M25 1530h200l178 -510l193 510h203l-297 -764v-762h-191v762z" />
<glyph unicode="Z" horiz-adv-x="710" d="M4 10h94h572v193h-418l418 1337h-191v-4h-475v-190h418z" />
<glyph unicode="[" horiz-adv-x="425" d="M4 0v1528h381v-191h-190v-1147h190v-190h-381z" />
<glyph unicode="\" horiz-adv-x="720" d="M12 1528h191l477 -1528h-191z" />
<glyph unicode="]" horiz-adv-x="425" d="M4 6v191h191v1146h-191v191h381v-1528h-381z" />
<glyph unicode="^" horiz-adv-x="827" d="M10 772l291 762h4l-4 2h195l-4 -2h6l288 -762h-196l-191 510l-192 -510h-197z" />
<glyph unicode="a" horiz-adv-x="837" d="M12 381q0 160 112.5 272.5t272.5 112.5q117 0 209 -61v61h191v-766h-191v61q-98 -65 -209 -65q-159 0 -272 113t-113 272zM203 381q0 -78 58 -134.5t136 -56.5q79 0 136 56.5t57 134.5q0 81 -56.5 137.5t-136.5 56.5q-79 0 -136.5 -56.5t-57.5 -137.5z" />
<glyph unicode="b" horiz-adv-x="839" d="M16 10v1526h191v-825q99 63 211 63q157 0 269 -112.5t112 -270.5q0 -159 -112 -272t-269 -113q-113 0 -211 66v-62h-191zM225 391q0 -81 56.5 -137.5t136.5 -56.5q78 0 134 56.5t56 137.5q0 78 -56 135.5t-134 57.5q-79 0 -136 -57.5t-57 -135.5z" />
<glyph unicode="c" horiz-adv-x="759" d="M6 387q0 159 112 272t269 113q107 0 195.5 -52.5t136.5 -141.5h-307q-8 4 -25 4q-78 0 -134 -57t-56 -138q0 -78 56 -134t134 -56h25h307q-48 -87 -137 -140t-195 -53q-157 0 -269 112.5t-112 270.5z" />
<glyph unicode="d" horiz-adv-x="827" d="M4 391q0 158 112.5 270.5t270.5 112.5q117 0 209 -63v825h190v-1526h-190v62q-92 -66 -209 -66q-158 0 -270.5 112.5t-112.5 272.5zM197 391q0 -81 56 -137.5t134 -56.5q82 0 138.5 56t56.5 138q0 79 -57 136t-138 57q-78 0 -134 -57.5t-56 -135.5z" />
<glyph unicode="e" horiz-adv-x="813" d="M4 391q0 158 112.5 270.5t270.5 112.5h25h6q6 -2 18 -2h6q6 -2 13.5 -3.5t9.5 -2.5h2q3 0 10 -2t12 -2q3 -2 7 -2q8 0 14 -6h6q9 -3 24 -10t19 -9l4 -4q2 -1 9 -4t12 -4q6 -5 20.5 -14.5t20.5 -14.5v-2q27 -18 51 -49q96 -111 96 -252q0 -52 -16 -108h-37h-488 q25 -38 67 -60t89 -22h25h307q-48 -88 -138 -141.5t-194 -53.5q-128 0 -229 78t-135 199q-7 11 -7 24h-4q0 5 -1 14.5t-1 14.5q-4 8 -4 24v7q0 4 -1 11.5t-1 12.5zM215 473h348q-22 46 -61.5 75.5t-89.5 33.5l-9 2h-16q-56 0 -102 -30.5t-70 -80.5z" />
<glyph unicode="f" horiz-adv-x="616" d="M4 670v194h180v289q0 158 112.5 270.5t272.5 112.5v-190q-81 0 -137.5 -56.5t-56.5 -136.5v-289h200v-194h-200v-666h-191v666h-180z" />
<glyph unicode="g" horiz-adv-x="821" d="M-4 387q0 159 113 272t272 113q119 0 209 -65v65h190v-895q-5 -156 -115.5 -264.5t-265.5 -108.5q-158 0 -270.5 112.5t-112.5 272.5h191q0 -81 56 -137.5t136 -56.5q79 0 135 56.5t56 137.5v179q-94 -64 -209 -64q-158 0 -271.5 112.5t-113.5 270.5zM190 387 q0 -78 56.5 -135t134.5 -57q81 0 137.5 56.5t56.5 135.5q0 82 -56 138.5t-138 56.5q-78 0 -134.5 -57t-56.5 -138z" />
<glyph unicode="h" horiz-adv-x="813" d="M4 6v1530h193v-813q85 51 190 51q156 0 268 -108.5t117 -262.5v-397h-190v385q0 80 -57 136.5t-138 56.5q-78 0 -134 -57t-56 -136v-385h-193z" />
<glyph unicode="i" horiz-adv-x="229" d="M-4 4v768h192v-768h-192zM-4 1055v192h192v-192h-192z" />
<glyph unicode="j" horiz-adv-x="231" d="M-190 -92q78 0 132.5 54.5t57.5 133.5v676h190v-674q0 -157 -111.5 -269t-268.5 -112v191zM0 1053v190h190v-190h-190z" />
<glyph unicode="k" horiz-adv-x="677" d="M4 6v1530h191v-616l208 235h234l-336 -383l283 -766h-193l-196 529v-529h-191z" />
<glyph unicode="l" horiz-adv-x="231" d="M0 6h190v1530h-190v-1530z" />
<glyph unicode="m" horiz-adv-x="813" d="M4 0v766h193v-49q85 51 190 51q156 0 268 -108.5t117 -262.5v-397h-190v385q0 56 -29 102t-76 70v-557h-190v547q-42 -25 -66 -68t-24 -94v-385h-193z" />
<glyph unicode="n" horiz-adv-x="813" d="M4 4v764h193v-49q83 53 190 53q157 0 268.5 -109t116.5 -264v-395h-190v383q0 82 -56.5 138.5t-138.5 56.5q-78 0 -134 -57t-56 -138v-383h-193z" />
<glyph unicode="o" horiz-adv-x="813" d="M4 385q0 158 112.5 270.5t270.5 112.5q160 0 272.5 -112.5t112.5 -270.5q0 -160 -112.5 -272.5t-272.5 -112.5q-158 0 -270.5 112.5t-112.5 272.5zM197 385q0 -78 56 -134t134 -56q81 0 138 56t57 134q0 80 -57 136.5t-138 56.5q-78 0 -134 -57t-56 -136z" />
<glyph unicode="p" horiz-adv-x="827" d="M4 -760v1528h193v-57q97 61 209 61q159 0 269.5 -112.5t110.5 -272.5q0 -159 -110.5 -271t-269.5 -112q-112 0 -209 64v-828h-193zM213 387q0 -78 57 -135t136 -57q78 0 134 57t56 135q0 81 -56 138t-134 57q-80 0 -136.5 -57t-56.5 -138z" />
<glyph unicode="q" horiz-adv-x="819" d="M-6 385q0 158 112.5 270.5t272.5 112.5q112 0 209 -61v59h190v-1528h-190v828q-95 -66 -209 -66q-160 0 -272.5 112.5t-112.5 272.5zM188 385q0 -78 56.5 -136.5t134.5 -58.5q79 0 135.5 58t56.5 137q0 80 -56.5 136.5t-135.5 56.5q-78 0 -134.5 -57t-56.5 -136z" />
<glyph unicode="r" horiz-adv-x="425" d="M4 4v768h191v-53q83 53 190 53v-190q-78 0 -134 -57t-56 -138v-383h-191z" />
<glyph unicode="s" horiz-adv-x="813" d="M-2 4v191h389q53 0 98 26.5t72 71.5h-557v98q0 40 10 92q33 126 136.5 208.5t238.5 82.5h430v-192h-430q-54 0 -100 -27.5t-70 -71.5h557v-96q0 -47 -12 -94q-33 -126 -137 -207.5t-236 -81.5h-389z" />
<glyph unicode="t" horiz-adv-x="612" d="M0 676v190h190v277h191v-277h190v-190h-190v-676h-191v676h-190z" />
<glyph unicode="u" horiz-adv-x="813" d="M4 369v397h193v-385q0 -78 56 -135.5t134 -57.5q81 0 138 57t57 136v385h190v-766h-190v49q-95 -53 -195 -53q-153 0 -264.5 109.5t-116.5 263.5h-2z" />
<glyph unicode="v" horiz-adv-x="821" d="M0 766h195l196 -526l193 526h196l-284 -762h-213z" />
<glyph unicode="w" horiz-adv-x="888" d="M4 397v369h209v-344q0 -61 32 -111.5t85 -77.5v533h209v-522q44 29 71 76.5t27 101.5v344h211v-762h-211v51q-102 -55 -213 -55q-167 0 -289 115.5t-131 281.5z" />
<glyph unicode="x" horiz-adv-x="825" d="M4 0l270 381l-270 381h236l153 -211l154 211h237l-274 -381l274 -381h-233l-158 215l-155 -215h-234z" />
<glyph unicode="y" horiz-adv-x="821" d="M0 760h227l160 -449l160 449h233l-559 -1532h-221l276 772z" />
<glyph unicode="z" horiz-adv-x="825" d="M4 0l399 571h-399v191h780l-399 -572h399v-190h-534h-246z" />
<glyph unicode="{" horiz-adv-x="425" d="M4 0v1528h381v-191h-190v-1147h190v-190h-381z" />
<glyph unicode="|" horiz-adv-x="137" d="M0 4h96v1518h-96v-1518z" />
<glyph unicode="}" horiz-adv-x="425" d="M4 6v191h191v1146h-191v191h381v-1528h-381z" />
<glyph unicode="~" horiz-adv-x="999" d="M10 784q37 69 97 117t129.5 69.5t146 15.5t145.5 -42q72 -39 149 -16.5t114 92.5l167 -88q-75 -141 -227 -187t-291 29q-72 37 -149 14t-113 -94z" />
<glyph unicode="&#xa1;" horiz-adv-x="235" d="M4 6v1149h191v-1149h-191zM4 1346v190h191v-190h-191z" />
<glyph unicode="&#xad;" horiz-adv-x="800" d="M-4 639h764v190h-764v-190z" />
<glyph unicode="&#xbf;" d="M-4 391h194q0 -81 56 -137.5t135 -56.5q82 0 138 56t56 138q0 75 -52 130.5t-126 60.5h-110v573h190v-393q116 -29 195.5 -121t89.5 -213h4v-25v-12v-10v-6q-5 -153 -117 -261t-268 -108q-159 0 -272 113t-113 272zM287 1346v190h190v-190h-190z" />
<glyph unicode="&#xd7;" horiz-adv-x="833" d="M12 391l271 381l-271 381h238l153 -213l154 213h236l-273 -381l273 -381h-234l-156 215l-157 -215h-234z" />
<glyph unicode="&#xf7;" d="M4 618v191h762v-191h-762zM289 319v191h190v-191h-190zM289 913v193h190v-193h-190z" />
<glyph unicode="&#x2000;" horiz-adv-x="961" />
<glyph unicode="&#x2001;" horiz-adv-x="1923" />
<glyph unicode="&#x2002;" horiz-adv-x="961" />
<glyph unicode="&#x2003;" horiz-adv-x="1923" />
<glyph unicode="&#x2004;" horiz-adv-x="641" />
<glyph unicode="&#x2005;" horiz-adv-x="480" />
<glyph unicode="&#x2006;" horiz-adv-x="320" />
<glyph unicode="&#x2007;" horiz-adv-x="320" />
<glyph unicode="&#x2008;" horiz-adv-x="240" />
<glyph unicode="&#x2009;" horiz-adv-x="384" />
<glyph unicode="&#x200a;" horiz-adv-x="106" />
<glyph unicode="&#x2010;" horiz-adv-x="800" d="M-4 639h764v190h-764v-190z" />
<glyph unicode="&#x2011;" horiz-adv-x="800" d="M-4 639h764v190h-764v-190z" />
<glyph unicode="&#x2012;" horiz-adv-x="800" d="M-4 639h764v190h-764v-190z" />
<glyph unicode="&#x2013;" horiz-adv-x="800" d="M-4 639h764v190h-764v-190z" />
<glyph unicode="&#x2014;" horiz-adv-x="1570" d="M0 637v190h766h764v-190h-764h-766z" />
<glyph unicode="&#x2018;" horiz-adv-x="280" d="M-10 1544.5q0 158.5 114 272.5l136 -136q-57 -55 -57 -135t57 -135l-136 -135q-114 110 -114 268.5z" />
<glyph unicode="&#x2019;" horiz-adv-x="280" d="M-10 1411q58 55 58 135t-58 135l137 136q74 -75 100 -174t0 -197t-100 -170z" />
<glyph unicode="&#x201a;" horiz-adv-x="303" d="M12 133l135 135q114 -114 114 -273t-114 -269l-135 135q58 56 58 136t-58 136z" />
<glyph unicode="&#x201c;" horiz-adv-x="604" d="M-5 1544.5q0 158.5 114 272.5l135 -136q-56 -59 -56 -137t56 -137l-135 -135q-114 114 -114 272.5zM314 1544.5q0 158.5 114 272.5l135 -136q-59 -59 -59 -137t59 -137l-135 -135q-114 114 -114 272.5z" />
<glyph unicode="&#x201d;" horiz-adv-x="604" d="M-6 1407q58 59 58 137t-58 137l135 136q114 -114 114 -272.5t-114 -272.5zM313 1407q55 59 55 137t-55 137l136 136q114 -114 114 -272.5t-114 -272.5z" />
<glyph unicode="&#x201e;" horiz-adv-x="303" d="M12 133l135 135q114 -114 114 -273t-114 -269l-135 135q58 56 58 136t-58 136z" />
<glyph unicode="&#x202f;" horiz-adv-x="384" />
<glyph unicode="&#x2039;" horiz-adv-x="802" d="M0 670v190h4v4l758 289v-197l-506 -190l506 -195v-192l-758 289v2h-4z" />
<glyph unicode="&#x203a;" horiz-adv-x="802" d="M0 379v196l508 191l-508 192v195l760 -289v-4h2v-190h-2v-2z" />
<glyph unicode="&#x205f;" horiz-adv-x="480" />
<glyph unicode="&#x2122;" horiz-adv-x="1611" d="M0 1346v194h287h190h285v-194h-285v-1336h-190v1336h-287zM801 10v1526h198l187 -504l190 504h195l-4 -12v-1514h-191v1010l-94 -248h-195l-94 252v-1014h-192z" />
<glyph unicode="&#x25fc;" horiz-adv-x="757" d="M0 0v758h758v-758h-758z" />
</font>
</defs>
</svg>
